<mxfile host="65bd71144e">
    <diagram id="eP4GV7LEkulxO0Fltvin" name="Page-1">
        <mxGraphModel dx="1299" dy="515" grid="1" gridSize="10" guides="1" tooltips="1" connect="1" arrows="1" fold="1" page="1" pageScale="1" pageWidth="850" pageHeight="1100" math="0" shadow="0">
            <root>
                <mxCell id="0"/>
                <mxCell id="1" parent="0"/>
                <mxCell id="7" style="edgeStyle=none;html=1;entryX=0.5;entryY=0;entryDx=0;entryDy=0;fontSize=28;" edge="1" parent="1" source="2" target="3">
                    <mxGeometry relative="1" as="geometry"/>
                </mxCell>
                <mxCell id="9" style="edgeStyle=none;html=1;entryX=0.5;entryY=0;entryDx=0;entryDy=0;fontSize=28;" edge="1" parent="1" source="2" target="4">
                    <mxGeometry relative="1" as="geometry"/>
                </mxCell>
                <mxCell id="2" value="10" style="ellipse;whiteSpace=wrap;html=1;aspect=fixed;fontSize=28;" vertex="1" parent="1">
                    <mxGeometry x="150" y="80" width="80" height="80" as="geometry"/>
                </mxCell>
                <mxCell id="8" style="edgeStyle=none;html=1;entryX=0.5;entryY=0;entryDx=0;entryDy=0;fontSize=28;" edge="1" parent="1" source="3" target="5">
                    <mxGeometry relative="1" as="geometry"/>
                </mxCell>
                <mxCell id="11" style="edgeStyle=none;html=1;entryX=0.5;entryY=0;entryDx=0;entryDy=0;fontSize=28;" edge="1" parent="1" source="3" target="6">
                    <mxGeometry relative="1" as="geometry"/>
                </mxCell>
                <mxCell id="3" value="5" style="ellipse;whiteSpace=wrap;html=1;aspect=fixed;fontSize=28;" vertex="1" parent="1">
                    <mxGeometry x="50" y="190" width="80" height="80" as="geometry"/>
                </mxCell>
                <mxCell id="4" value="20" style="ellipse;whiteSpace=wrap;html=1;aspect=fixed;fontSize=28;" vertex="1" parent="1">
                    <mxGeometry x="240" y="190" width="80" height="80" as="geometry"/>
                </mxCell>
                <mxCell id="5" value="3" style="ellipse;whiteSpace=wrap;html=1;aspect=fixed;fontSize=28;" vertex="1" parent="1">
                    <mxGeometry x="-40" y="300" width="80" height="80" as="geometry"/>
                </mxCell>
                <mxCell id="6" value="7" style="ellipse;whiteSpace=wrap;html=1;aspect=fixed;fontSize=28;" vertex="1" parent="1">
                    <mxGeometry x="130" y="310" width="80" height="80" as="geometry"/>
                </mxCell>
            </root>
        </mxGraphModel>
    </diagram>
</mxfile>